<svg xmlns="http://www.w3.org/2000/svg" width="211" height="44" viewBox="0 0 211 44" fill="none"><path fill-rule="evenodd" clip-rule="evenodd" d="M43.2144 30.7459C44.3928 28.0764 45.0372 25.1455 45.0372 22.0653C45.0372 9.9126 34.9287 0 22.5186 0C10.1085 0 0 9.9126 0 22.0653C0 25.1269 0.644441 28.0577 1.80443 30.7085C7.77012 27.6097 11.3237 24.1935 14.0304 19.8625C13.2755 25.6122 9.99804 30.9325 4.2349 34.9275C5.45013 36.5702 6.88631 38.045 8.48821 39.3144C14.0304 34.6288 16.3872 28.8417 17.6393 22.812C18.431 28.9351 17.179 35.4501 12.2812 41.7225C14.6196 42.8986 17.1974 43.6826 19.904 44L22.4634 18.7611L25.4278 43.944C28.024 43.608 30.4728 42.8426 32.7192 41.7225C27.8951 35.4688 26.5326 28.7857 27.3611 22.7374C28.5948 28.7111 31.0436 34.6661 36.4938 39.333C38.1141 38.0636 39.5503 36.5889 40.7655 34.9461C35.0576 30.9699 31.8538 25.5936 31.0989 19.8812C33.8055 24.2121 37.3039 27.6657 43.2144 30.7459ZM15.2272 13.9635L13.7358 13.1795L12.226 13.9448L12.5206 12.3021L11.3053 11.1447L12.9809 10.9207L13.7358 9.44591L14.4723 10.9393L16.1478 11.182L14.951 12.3207L15.2272 13.9635ZM23.9732 7.42978L22.445 6.62707L20.8983 7.39245L21.2297 5.76835L20.0329 4.36826H21.7085L22.4634 2.87484L23.1999 4.36826H24.8754L23.6602 5.76835L23.9732 7.42978ZM32.6087 13.9635L31.1173 13.1795L29.6075 13.9448L29.9021 12.3021L28.7052 11.1447L30.3808 10.9207L31.1357 9.44591L31.8722 10.9393L33.5477 11.182L32.3325 12.3394L32.6087 13.9635Z" fill="white"></path><path fill-rule="evenodd" clip-rule="evenodd" d="M110.641 9.72577C110.42 10.2671 110.199 10.8085 109.997 11.3312C108.082 16.0728 106.075 20.7771 104.271 25.5561C103.276 28.2069 102.632 31.0071 101.822 33.7326C101.785 33.8446 101.766 33.9379 101.73 34.0686H95.1195C95.5799 32.4445 96.0402 30.839 96.4821 29.2336C96.4637 29.2149 96.4268 29.1963 96.4084 29.1776C96.2979 29.3083 96.2059 29.4203 96.0954 29.551C94.4567 31.5298 92.5418 33.1539 90.1113 34.0499C88.3437 34.7033 86.5393 34.9086 84.7164 34.3486C82.4333 33.6579 81.0339 31.5858 80.9787 28.9723C80.9234 26.2281 81.7152 23.7079 82.8752 21.3185C86.1158 14.6167 91.2897 10.3605 98.5443 8.88572C102.503 8.083 106.443 8.41902 110.31 9.61376C110.402 9.61376 110.494 9.66976 110.641 9.72577ZM101.472 14.3554C101.343 14.262 101.325 14.2434 101.288 14.2434C101.214 14.2247 101.14 14.206 101.048 14.206C99.1703 13.87 97.4395 14.2434 95.8192 15.2514C92.8732 17.1182 90.8662 19.769 89.6142 23.0359C89.1907 24.1373 88.9145 25.2574 88.9697 26.4521C89.0618 28.0949 90.1113 28.9536 91.7132 28.6736C92.91 28.4496 93.8675 27.7962 94.7513 26.9935C96.0954 25.7427 97.2002 24.2866 97.9551 22.6252C99.1887 19.881 100.312 17.0995 101.472 14.3554Z" fill="white"></path><path fill-rule="evenodd" clip-rule="evenodd" d="M52.0526 34.0692C52.1631 33.7705 52.2736 33.5092 52.384 33.2478C55.2748 26.0981 58.1472 18.9296 61.038 11.7799C61.351 10.9771 61.6272 10.1558 61.9402 9.35304C61.9954 9.22237 62.1795 9.03569 62.3084 9.03569C64.297 9.01702 66.2855 9.01702 68.2741 9.03569C68.3109 9.03569 68.3293 9.05436 68.4214 9.09169C67.9979 10.4171 67.5744 11.7425 67.0957 13.2173C67.4271 12.8999 67.6665 12.6572 67.9059 12.4332C70.0233 10.4358 72.4169 8.96102 75.3445 8.58766C76.3757 8.45699 77.462 8.47566 78.4931 8.64367C80.5921 8.97969 81.8258 10.5104 81.9547 12.6759C82.0283 13.9827 81.8442 15.2521 81.4023 16.4468C80.4632 19.023 79.4874 21.5991 78.4747 24.1566C77.2226 27.3301 75.8969 30.485 74.6265 33.6585C74.4976 33.9759 74.3319 34.1065 73.982 34.1065C71.7357 34.0879 69.4893 34.1065 67.1694 34.1065C67.243 33.9199 67.2798 33.7705 67.3351 33.6398C69.1211 29.2342 70.9255 24.8286 72.6931 20.4044C73.135 19.303 73.4849 18.1642 73.7242 17.0255C74.1477 15.0654 73.043 14.02 71.1281 14.5427C70.3363 14.7667 69.5446 15.1961 68.8633 15.7001C66.9852 17.1188 65.6411 19.023 64.6837 21.1511C63.3948 23.9886 62.2716 26.9008 61.0748 29.7756C60.5224 31.101 59.9884 32.4451 59.4545 33.7705C59.3624 33.9945 59.2888 34.1439 58.9942 34.1439C56.7662 34.1252 54.5383 34.1439 52.3104 34.1252C52.2551 34.1065 52.1815 34.0879 52.0526 34.0692Z" fill="white"></path><path fill-rule="evenodd" clip-rule="evenodd" d="M120.713 34.106C121.007 33.3966 121.265 32.7246 121.541 32.0712C123.125 28.1883 124.745 24.3054 126.292 20.3852C126.734 19.2465 126.992 18.033 127.323 16.857C127.378 16.6703 127.378 16.4836 127.378 16.2783C127.397 15.1582 126.863 14.5422 125.758 14.4115C124.948 14.3182 124.193 14.5795 123.493 14.9715C122.333 15.6062 121.394 16.5023 120.566 17.529C118.89 19.5451 117.804 21.8786 116.846 24.3054C115.613 27.4416 114.342 30.5591 113.09 33.6953C112.961 34.0127 112.814 34.1247 112.482 34.1247C110.365 34.106 108.247 34.1247 106.13 34.1247H105.651C106.075 33.0793 106.48 32.0899 106.867 31.1005C109.665 24.0627 112.482 17.025 115.281 10.0059C115.668 9.05384 115.631 9.03517 116.644 9.03517H122.039C121.578 10.4353 121.136 11.7607 120.713 13.1047C120.75 13.1234 120.786 13.1608 120.823 13.1794C121.007 12.9741 121.192 12.7501 121.394 12.5634C123.493 10.4913 125.924 8.9605 128.888 8.58714C129.901 8.45647 130.987 8.47514 132 8.62448C134.172 8.97917 135.424 10.5099 135.535 12.7501C135.59 14.0195 135.424 15.2515 135.001 16.4276C134.062 19.0038 133.104 21.5426 132.092 24.0814C130.821 27.2923 129.477 30.4658 128.188 33.6767C128.059 33.994 127.912 34.106 127.581 34.106C125.463 34.0874 123.346 34.106 121.228 34.106H120.713Z" fill="white"></path><path fill-rule="evenodd" clip-rule="evenodd" d="M192.32 34.0686C193.038 32.3138 193.737 30.6151 194.419 28.9163C195.579 26.0601 196.776 23.2226 197.899 20.3478C198.304 19.3211 198.562 18.2383 198.856 17.1929C198.911 16.9876 198.93 16.7449 198.948 16.5209C199.04 14.9901 198.212 14.2247 196.702 14.4301C195.726 14.5608 194.897 15.0088 194.143 15.6062C192.338 16.9876 190.994 18.7797 190.037 20.8145C188.969 23.0733 188.048 25.4068 187.091 27.7402C186.28 29.719 185.489 31.7165 184.697 33.6953C184.568 34.0126 184.402 34.1246 184.071 34.1059C181.953 34.0873 179.836 34.1059 177.718 34.1059C177.59 34.1059 177.442 34.0873 177.258 34.0873C177.369 33.7886 177.479 33.5459 177.571 33.3032C180.37 26.3588 183.169 19.3957 185.967 12.4513C186.372 11.4432 186.704 10.3978 187.091 9.38979C187.146 9.24044 187.348 9.0351 187.477 9.0351C189.466 9.01643 191.454 9.01643 193.461 9.01643C193.498 9.01643 193.553 9.0351 193.627 9.05377C193.185 10.4165 192.743 11.7419 192.301 13.086C192.357 13.1233 192.393 13.1607 192.449 13.2167C192.596 13.0113 192.725 12.7873 192.909 12.6193C195.045 10.5099 197.494 9.01643 200.495 8.5684C201.729 8.38173 202.962 8.38173 204.159 8.73641C205.908 9.25911 206.958 10.5845 207.123 12.4513C207.271 14.1127 206.939 15.7182 206.369 17.2489C205.319 20.0678 204.196 22.8493 203.091 25.6308C202.005 28.3376 200.9 31.0071 199.795 33.7139C199.703 33.9566 199.611 34.1059 199.298 34.1059C197.07 34.0873 194.842 34.106 192.614 34.0873C192.504 34.106 192.449 34.0873 192.32 34.0686Z" fill="white"></path><path fill-rule="evenodd" clip-rule="evenodd" d="M162.951 24.4357C162.473 26.6385 163.412 27.9639 165.124 28.5426C166.597 29.028 168.089 28.9347 169.58 28.748C171.219 28.5613 172.802 28.1133 174.33 27.4599C174.423 27.4226 174.533 27.3852 174.699 27.3292C174.588 28.3186 174.478 29.252 174.367 30.1854C174.275 30.8948 174.202 31.5855 174.091 32.2762C174.073 32.4442 173.944 32.6869 173.797 32.7429C169.801 34.3857 165.695 35.095 161.423 34.3483C160.816 34.2363 160.226 34.031 159.656 33.7883C157.059 32.6496 155.771 30.5774 155.697 27.7773C155.568 23.073 157.409 19.0781 160.263 15.5125C162.841 12.3203 166.026 10.0055 170.003 8.96013C172.047 8.41876 174.11 8.23208 176.209 8.69878C179.946 9.52016 181.659 12.339 180.775 16.1099C180.075 19.0407 178.308 21.0569 175.693 22.3823C173.594 23.4277 171.348 23.9877 169.046 24.1744C167.113 24.3424 165.161 24.3424 163.228 24.4171C163.117 24.3984 163.025 24.4171 162.951 24.4357ZM164.958 19.0594C166.247 18.9847 167.573 18.9847 168.88 18.8354C169.93 18.7047 170.979 18.4247 172.01 18.126C172.765 17.902 173.373 17.398 173.741 16.6513C174.441 15.1952 173.796 14.0378 172.213 13.9071C172.029 13.8884 171.826 13.8698 171.642 13.8884C168.899 14.0191 165.842 16.2966 164.922 18.9287C164.903 18.9287 164.922 18.9474 164.958 19.0594Z" fill="white"></path><path fill-rule="evenodd" clip-rule="evenodd" d="M132.516 32.8179C133.62 31.0445 134.651 29.383 135.683 27.7029C136.309 28.0389 136.879 28.4123 137.487 28.6923C138.629 29.215 139.807 29.5137 141.077 29.327C143.158 29.0097 144.337 27.2362 143.6 25.2201C143.177 24.044 142.495 22.9613 141.869 21.8786C141.28 20.8332 140.709 19.7878 140.47 18.593C140.083 16.6516 140.544 14.8781 141.667 13.2727C143.066 11.2566 144.981 9.94984 147.283 9.2218C150.523 8.19507 153.727 8.34441 156.857 9.74449C157.391 9.98718 157.888 10.3419 158.459 10.6779C158.293 10.8832 158.183 11.0326 158.072 11.1446C157.152 12.1713 156.213 13.198 155.292 14.2434C155.034 14.5235 154.85 14.5981 154.519 14.3741C153.561 13.7207 152.512 13.4594 151.352 13.6274C149.731 13.8701 148.756 15.4755 149.216 17.1743C149.4 17.8463 149.731 18.481 150.044 19.0971C150.615 20.2358 151.223 21.3559 151.83 22.4759C153.635 25.8361 152.641 28.823 150.339 31.1191C148.59 32.8552 146.417 33.7886 144.042 34.218C140.801 34.7967 137.597 34.6847 134.449 33.6953C133.805 33.4713 133.197 33.1352 132.516 32.8179Z" fill="white"></path><path fill-rule="evenodd" clip-rule="evenodd" d="M149.878 41.3122H49.3088L50.3951 38.6987H150.965L149.878 41.3122Z" fill="white"></path><path fill-rule="evenodd" clip-rule="evenodd" d="M209.259 4.6486H140.764L141.869 2.03511H210.345L209.259 4.6486Z" fill="white"></path></svg>